<svg width="48" height="48" viewBox="0 0 48 48" fill="none" xmlns="http://www.w3.org/2000/svg">
<path d="M39.504 14.8587V11.9056H35.0766V10.4233H33.5978V8.95255H29.1699V7.47051H27.6916L27.6913 6H23.2555V7.47079H18.8282V8.9531H17.3498V13.3771H9.96879V14.8594H8.49046V16.3301H7.0159V22.2364H8.49046V26.6702H9.96879V28.1528H11.4434V31.1054H12.9222V34.0581H14.3967V35.5288H15.8755V38.4819H17.3501V41.435H38.0292V35.5288H39.5037V34.058L39.504 32.5765V31.1057H40.9823V14.8591L39.504 14.8594V14.8587ZM39.504 17.8116V29.6237H38.0295V34.0581H36.5511V39.9643H18.8281V37.0112H17.3498V34.0581H15.8753L15.875 32.5766H14.3962V29.624H12.9216V26.6707H11.4428V25.2001H9.96824V20.7652H8.48991V17.8121H9.96824V16.3298H11.4428V14.859H14.3962V16.3298H15.875V19.2829H14.3962V20.7652H15.875V22.236H17.3495V14.8591H18.8279V10.4236H20.3024V8.95282H21.7808V14.8591H23.2553V8.95282H24.7341V7.47079H26.2164V8.9531H27.691V14.8594H29.1693V10.4239H32.1227V11.9062H33.5973V17.8125H35.0761V13.377H38.0289V16.3301H39.5035L39.504 17.8116Z" fill="black"/>
</svg>
