<svg id="eESgHk8MQ5n1" xmlns="http://www.w3.org/2000/svg" xmlns:xlink="http://www.w3.org/1999/xlink" viewBox="0 0 80 80" shape-rendering="geometricPrecision" text-rendering="geometricPrecision"><style><![CDATA[#eESgHk8MQ5n3_to {animation: eESgHk8MQ5n3_to__to 1500ms linear infinite normal forwards}@keyframes eESgHk8MQ5n3_to__to { 0% {transform: translate(52px,39.717501px);animation-timing-function: cubic-bezier(0.42,0,0.58,1)} 66.666667% {transform: translate(28px,39.717501px)} 100% {transform: translate(28px,39.717501px)}} #eESgHk8MQ5n3 {animation: eESgHk8MQ5n3_c_o 1500ms linear infinite normal forwards}@keyframes eESgHk8MQ5n3_c_o { 0% {opacity: 1} 66% {opacity: 1} 66.666667% {opacity: 0} 100% {opacity: 0}} #eESgHk8MQ5n4_to {animation: eESgHk8MQ5n4_to__to 1500ms linear infinite normal forwards}@keyframes eESgHk8MQ5n4_to__to { 0% {transform: translate(28.0001px,39.506001px)} 66.666667% {transform: translate(28.0001px,39.506001px);animation-timing-function: cubic-bezier(0.42,0,0.58,1)} 100% {transform: translate(52px,39.506001px)}} #eESgHk8MQ5n4 {animation: eESgHk8MQ5n4_c_o 1500ms linear infinite normal forwards}@keyframes eESgHk8MQ5n4_c_o { 0% {opacity: 0} 66% {opacity: 0} 66.666667% {opacity: 1} 100% {opacity: 1}}]]></style><circle r="40" transform="translate(40 40)" fill="#ffe5f1"/><g id="eESgHk8MQ5n3_to" transform="translate(52,39.717501)"><path id="eESgHk8MQ5n3" d="M55.504,30.8587v-2.9531h-4.4274v-1.4823h-1.4788v-1.4708h-4.4279v-1.482h-1.4783L43.6913,22h-4.4358v1.4708h-4.4273v1.4823h-1.4784v4.424h-7.381v1.4823h-1.4783v1.4707h-1.4746v5.9063h1.4746v4.4338h1.4783v1.4826h1.4746v2.9526h1.4788v2.9527h1.4745v1.4707h1.4788v2.9531h1.4746v2.9531h20.6791v-5.9062h1.4745v-1.4708l.0003-1.4815v-1.4708h1.4783v-16.2466l-1.4783.0003v-.0007Zm0,2.9529v11.8121h-1.4745v4.4344h-1.4784v5.9062h-17.723v-2.9531h-1.4783v-2.9531h-1.4745l-.0003-1.4815h-1.4788v-2.9526h-1.4746v-2.9533h-1.4788v-1.4706h-1.4746v-4.4349h-1.4783v-2.9531h1.4783v-1.4823h1.4746v-1.4708h2.9534v1.4708h1.4788v2.9531h-1.4788v1.4823h1.4788v1.4708h1.4745v-7.3769h1.4784v-4.4355h1.4745v-1.4708h1.4784v5.9063h1.4745v-5.9063h1.4788v-1.482h1.4823v1.4823h1.4746v5.9063h1.4783v-4.4355h2.9534v1.4823h1.4746v5.9063h1.4788v-4.4355h2.9528v2.9531h1.4746l.0005,1.4815Z" transform="translate(-39.9991,-39.717501)"/></g><g id="eESgHk8MQ5n4_to" transform="translate(28.0001,39.506001)"><path id="eESgHk8MQ5n4" d="M49.5938,43.1998v-1.4826h-1.4708l.0003-1.4702h-1.4823v-1.4823h-1.4708v-1.4708h-1.4818v-1.4823h-1.4707v-1.4708h-1.4824v-1.4823h-1.4707v-1.4708h-1.4824l.0003-1.4818h-1.4817v-1.4708h-1.4708v-1.4823h-1.4823v-1.4708h-1.4821L31.8659,24h-2.9416v4.4355l.0003,1.4705v23.6352h2.9526v-1.4823h1.4708v-1.4708h1.4823v-1.4823h2.9526v2.9531h1.4823v1.4823h1.4708v1.4708h4.4349v-5.9063h-1.4817v-1.4708l-.0006-1.4817h-1.4707v-1.4708h8.858v-1.4823l-1.4821-.0003Zm-4.4237,0h-4.4349v4.4344h1.4823v2.9531h1.4708v2.9531h-1.4708v-1.4823h-1.4823v-1.4708h-1.4708v-2.9531h-1.4823l.0003-1.4813h-2.9526v1.4818h-1.4823v1.4707h-1.4708v1.4823h-1.4818v-2.953l.0003-1.4818v-19.2h1.4817v1.4823h1.4708v1.4708h1.4823v1.4823h1.4708v1.4708h1.4818v1.4823h1.4823v1.4708h1.4708v1.4823h1.4823v1.4708h1.4708v1.4823h1.4817v1.4702h1.4708v1.4826l-1.4712-.0006Z" transform="translate(-40.0001,-39.506001)" opacity="0"/></g></svg>