<svg id="eXyjuLqfWZP1" xmlns="http://www.w3.org/2000/svg" xmlns:xlink="http://www.w3.org/1999/xlink" viewBox="0 0 80 48" shape-rendering="geometricPrecision" text-rendering="geometricPrecision"><style><![CDATA[#eXyjuLqfWZP2_to {animation: eXyjuLqfWZP2_to__to 2000ms linear infinite normal forwards}@keyframes eXyjuLqfWZP2_to__to { 0% {transform: translate(60.598329px,20px)} 12.5% {transform: translate(60.598329px,20px);animation-timing-function: cubic-bezier(0.2,0,0.4,1)} 50% {transform: translate(19.598329px,20px)} 100% {transform: translate(19.598329px,20px)}} #eXyjuLqfWZP2_ts {animation: eXyjuLqfWZP2_ts__ts 2000ms linear infinite normal forwards}@keyframes eXyjuLqfWZP2_ts__ts { 0% {transform: scale(0.5,0.5)} 12.5% {transform: scale(1,1)} 50% {transform: scale(1,1)} 62.5% {transform: scale(0.5,0.5)} 100% {transform: scale(0.5,0.5)}} #eXyjuLqfWZP2 {animation: eXyjuLqfWZP2_c_o 2000ms linear infinite normal forwards}@keyframes eXyjuLqfWZP2_c_o { 0% {opacity: 0} 12.5% {opacity: 1} 50% {opacity: 1} 62.5% {opacity: 0} 100% {opacity: 0}} #eXyjuLqfWZP3_to {animation: eXyjuLqfWZP3_to__to 2000ms linear infinite normal forwards}@keyframes eXyjuLqfWZP3_to__to { 0% {transform: translate(69.0758px,31.506001px)} 12.5% {transform: translate(69.0758px,31.506001px);animation-timing-function: cubic-bezier(0.2,0,0.4,1)} 50% {transform: translate(28.0758px,31.506001px);animation-timing-function: cubic-bezier(0.42,0,0.58,1)} 100% {transform: translate(68.0758px,31.506001px)}}]]></style><g id="eXyjuLqfWZP2_to" transform="translate(60.598329,20)"><g id="eXyjuLqfWZP2_ts" transform="scale(0.5,0.5)"><ellipse id="eXyjuLqfWZP2" rx="18.598329" ry="18.598329" transform="translate(0,0)" opacity="0" fill="#f57cc0" stroke-width="0"/></g></g><g id="eXyjuLqfWZP3_to" transform="translate(69.0758,31.506001)"><g transform="translate(-68.075802,-31.506)"><path d="M58.4706,16.772677v27.806346l6.398437-5.406845l4.430128,7.183584l3.221418-.089591-.000001-4.121134q-1.532207-.112821-1.532207-.203316c0-.090495.086395-2.980601-.001612-2.980601q-.088007,0-1.687601-.088008v-2.89118q8.370335.002601,8.370335-.084714t-19.198897-19.124541Z" transform="translate(.000004 0.000005)" fill="#fff" stroke-width="0.5"/><path d="M49.5938,43.1998v-1.4826h-1.4708l.0003-1.4702h-1.4823v-1.4823h-1.4708v-1.4708h-1.4818v-1.4823h-1.4707v-1.4708h-1.4824v-1.4823h-1.4707v-1.4708h-1.4824l.0003-1.4818h-1.4817v-1.4708h-1.4708v-1.4823h-1.4823v-1.4708h-1.4821L31.8659,24h-2.9416v4.4355l.0003,1.4705v23.6352h2.9526v-1.4823h1.4708v-1.4708h1.4823v-1.4823h2.9526v2.9531h1.4823v1.4823h1.4708v1.4708h4.4349v-5.9063h-1.4817v-1.4708l-.0006-1.4817h-1.4707v-1.4708h8.858v-1.4823l-1.4821-.0003Zm-4.4237,0h-4.4349v4.4344h1.4823v2.9531h1.4708v2.9531h-1.4708v-1.4823h-1.4823v-1.4708h-1.4708v-2.9531h-1.4823l.0003-1.4813h-2.9526v1.4818h-1.4823v1.4707h-1.4708v1.4823h-1.4818v-2.953l.0003-1.4818v-19.2h1.4817v1.4823h1.4708v1.4708h1.4823v1.4823h1.4708v1.4708h1.4818v1.4823h1.4823v1.4708h1.4708v1.4823h1.4823v1.4708h1.4708v1.4823h1.4817v1.4702h1.4708v1.4826l-1.4712-.0006Z" transform="translate(28.0757-8)" fill="#2f1575"/></g></g></svg>