<svg width="48" height="48" viewBox="0 0 48 48" fill="none" xmlns="http://www.w3.org/2000/svg">
<path d="M19.5 23.5V8.5L20.5 7H23L25 8.5V17L28.5 17.5L38 23V30.5L33.5 40.5H22L11.5 26H10V23.5L11 23L11.5 21.5H16V23.5H19.5Z" fill="white"/>
<path d="M37.2878 22.2402V20.7694H35.817V19.2871H32.8639V17.8163H29.9113V16.334H25.4763V7.47456H23.994V6H19.5706V7.47456H18.0883V22.24H16.6175V20.7693H10.7118V22.24H9.23004V26.6752H10.7118V28.1576H12.1826V29.6283H13.6644V31.1101H15.1351V34.0632H16.6174V35.5334H18.0882V38.4868H19.5705V39.9686H21.0413V41.4394H34.3346V39.9686H35.8169V37.016H37.2877V32.5808H38.77V22.2402H37.2878ZM37.2878 25.2005V31.11H35.817V35.5334H34.3347V38.4868H32.8639V39.9686H22.5233V38.4868H21.0415V37.016H19.5708V34.0632H18.0884V32.5809H16.6177V29.6283H15.1353V28.1575H13.6646V26.6752H12.1828V25.2006H10.712V23.7223H12.1828V22.24H15.1354V23.7223H16.6177V25.2006H19.5708V8.95673H21.0416V7.47442H22.5234V8.95673H23.9942V20.7695H25.4765V17.8164H28.4296V22.2404H29.9113V19.2873H31.3821V20.7696H32.8639V25.201H34.3347V22.2404H35.817V23.7227H37.2878V25.2005Z" fill="#2F1575"/>
</svg>
