<svg id="eNPgbu8Sq151" xmlns="http://www.w3.org/2000/svg" xmlns:xlink="http://www.w3.org/1999/xlink" viewBox="0 0 88 48" shape-rendering="geometricPrecision" text-rendering="geometricPrecision">
<style><![CDATA[
#eNPgbu8Sq152_to {animation: eNPgbu8Sq152_to__to 1400ms linear infinite normal forwards}@keyframes eNPgbu8Sq152_to__to { 0% {transform: translate(65.948747px,21.458162px)} 7.142857% {transform: translate(65.948747px,21.458162px);animation-timing-function: cubic-bezier(0.1,0,0.4,1)} 42.857143% {transform: translate(22.598329px,21.458162px)} 100% {transform: translate(22.598329px,21.458162px)}} #eNPgbu8Sq152_ts {animation: eNPgbu8Sq152_ts__ts 1400ms linear infinite normal forwards}@keyframes eNPgbu8Sq152_ts__ts { 0% {transform: scale(0.5,0.5)} 14.285714% {transform: scale(1.1,1.1)} 42.857143% {transform: scale(1.1,1.1)} 57.142857% {transform: scale(0.5,0.5)} 100% {transform: scale(0.5,0.5)}} #eNPgbu8Sq152 {animation: eNPgbu8Sq152_c_o 1400ms linear infinite normal forwards}@keyframes eNPgbu8Sq152_c_o { 0% {opacity: 0} 14.285714% {opacity: 1} 42.857143% {opacity: 1} 57.142857% {opacity: 0} 100% {opacity: 0}} #eNPgbu8Sq153_to {animation: eNPgbu8Sq153_to__to 1400ms linear infinite normal forwards}@keyframes eNPgbu8Sq153_to__to { 0% {transform: translate(65.029199px,29.71755px)} 7.142857% {transform: translate(65.029199px,29.71755px);animation-timing-function: cubic-bezier(0.1,0,0.4,1)} 42.857143% {transform: translate(22.029199px,29.71755px);animation-timing-function: cubic-bezier(0.42,0,0.58,1)} 92.857143% {transform: translate(65.029199px,29.71755px)} 100% {transform: translate(65.029199px,29.71755px)}} #eNPgbu8Sq153 {animation: eNPgbu8Sq153_c_o 1400ms linear infinite normal forwards}@keyframes eNPgbu8Sq153_c_o { 0% {opacity: 1;animation-timing-function: step-end} 7.142857% {opacity: 0;animation-timing-function: step-end} 42.857143% {opacity: 1} 100% {opacity: 1}} #eNPgbu8Sq156_to {animation: eNPgbu8Sq156_to__to 1400ms linear infinite normal forwards}@keyframes eNPgbu8Sq156_to__to { 0% {transform: translate(64.9832px,29.7175px)} 7.142857% {transform: translate(64.9832px,29.7175px);animation-timing-function: cubic-bezier(0.1,0,0.4,1)} 42.857143% {transform: translate(21.9832px,29.7175px);animation-timing-function: cubic-bezier(0.42,0,0.58,1)} 92.857143% {transform: translate(64.9832px,29.7175px)} 100% {transform: translate(64.9832px,29.7175px)}} #eNPgbu8Sq156 {animation: eNPgbu8Sq156_c_o 1400ms linear infinite normal forwards}@keyframes eNPgbu8Sq156_c_o { 0% {opacity: 0;animation-timing-function: step-end} 7.142857% {opacity: 1;animation-timing-function: step-end} 42.857143% {opacity: 0} 100% {opacity: 0}}
]]></style>
<g id="eNPgbu8Sq152_to" transform="translate(65.948747,21.458162)"><g id="eNPgbu8Sq152_ts" transform="scale(0.5,0.5)"><ellipse id="eNPgbu8Sq152" rx="18.598329" ry="18.598329" transform="translate(0,0)" opacity="0" fill="rgba(255,255,255,0.5)" stroke-width="0"/></g></g><g id="eNPgbu8Sq153_to" transform="translate(65.029199,29.71755)"><g id="eNPgbu8Sq153" transform="translate(-23.999899,-23.71755)"><path d="M36.5472,13.3764v-1.4708h-2.9531v-2.95305h-1.4708l.0003-1.48204h-4.4349L27.6889,6h-4.4349v1.47079h-4.4239v1.48231h-1.4823v11.8128h-1.4708v-1.4823h-4.4355v1.4823h-1.4708v1.4708l.00081,1.4813v2.9531h1.47079v2.9526h1.4823v2.9531h1.4708v1.4823h1.4823v2.9526h1.4708v4.4234h17.7291v-1.4708l-.001-1.4815v-1.4708h1.4708v-4.4349h1.4817v-19.2007h-1.4819Zm0,2.9531v14.7758h-1.4708v4.424h-1.4823v4.4343h-14.7648l.0008-1.4814v-2.9527h-1.4823v-2.9531h-1.4708v-1.4708h-1.4823v-2.9531h-1.4708l.0003-1.4823v-1.4707h-1.4823v-2.9644h1.4823v-1.4708h1.4708v1.4708h1.4823l-.0003,1.4823v1.4823h1.4708v1.4708h1.4823v-16.248h1.4708v-1.47077h1.4823v13.28297h1.4708v-13.28297h1.4818l-.0003-1.48149h1.4823v1.48231h1.4708v13.28295h1.4823v-13.28295h1.4708v1.47075h1.4818v11.8128l-.0003,1.4815h1.4708v-10.3419h1.4823v1.4823h1.4708l.0001,1.4715Z" fill="#242424"/><path d="M36.5472,16.3295v14.7758h-1.4708v4.424h-1.4823v4.4343h-14.7648l.0008-1.4814v-2.9527h-1.4823v-2.9531h-1.4708v-1.4708h-1.4823v-2.9531h-1.4708l.0003-1.4823v-1.4707h-1.4823v-2.9644h1.4823v-1.4708h1.4708v1.4708h1.4823l-.0003,1.4823v1.4823h1.4708v1.4708h1.4823v-16.248h1.4708v-1.47077h1.4823v13.28297h1.4708v-13.28297h1.4818l-.0003-1.48149h1.4823v1.48231h1.4708v13.28295h1.4823v-13.28295h1.4708v1.47075h1.4818v11.8128l-.0003,1.4815h1.4708v-10.3419h1.4823v1.4823h1.4708l.0001,1.4715Z" fill="#fff"/></g></g><g id="eNPgbu8Sq156_to" transform="translate(64.9832,29.7175)"><g id="eNPgbu8Sq156" transform="translate(-23.9991,-23.7175)" opacity="0"><path d="M39.504,14.8587v-2.9531h-4.4274v-1.4823h-1.4788v-1.47075h-4.4279v-1.48204h-1.4783L27.6913,6h-4.4358v1.47079h-4.4273v1.48231h-1.4784v4.424h-7.38101v1.4823h-1.47833v1.4707h-1.47456v5.9063h1.47456v4.4338h1.47833v1.4826h1.47461v2.9526h1.4788v2.9527h1.4745v1.4707h1.4788v2.9531h1.4746v2.9531h20.6791v-5.9062h1.4745v-1.4708l.0003-1.4815v-1.4708h1.4783v-16.2466l-1.4783.0003v-.0007Zm0,2.9529v11.8121h-1.4745v4.4344h-1.4784v5.9062h-17.723v-2.9531h-1.4783v-2.9531h-1.4745l-.0003-1.4815h-1.4788v-2.9526h-1.4746v-2.9533h-1.4788v-1.4706h-1.47456v-4.4349h-1.47833v-2.9531h1.47833v-1.4823h1.47456v-1.4708h2.9534v1.4708h1.4788v2.9531h-1.4788v1.4823h1.4788v1.4708h1.4745v-7.3769h1.4784v-4.4355h1.4745v-1.47078h1.4784v5.90628h1.4745v-5.90628h1.4788v-1.48203h1.4823v1.48231h1.4746v5.9063h1.4783v-4.4355h2.9534v1.4823h1.4746v5.9063h1.4788v-4.4355h2.9528v2.9531h1.4746l.0005,1.4815Z" fill="#242424"/><path d="M39.504,17.8116v11.8121h-1.4746v4.4344h-1.4783v5.9062h-17.723v-2.9531h-1.4783v-2.9531h-1.4745l-.0003-1.4815h-1.4788v-2.9526h-1.4746v-2.9533h-1.4788v-1.4706h-1.47456v-4.4349h-1.47833v-2.9531h1.47833v-1.4823h1.47456v-1.4708h2.9534v1.4708h1.4788v2.9531h-1.4788v1.4823h1.4788v1.4708h1.4745v-7.3769h1.4784v-4.4355h1.4745v-1.47078h1.4784v5.90628h1.4745v-5.90628h1.4788v-1.48203h1.4823v1.48231h1.4746v5.9063h1.4783v-4.4355h2.9534v1.4823h1.4746v5.9063h1.4788v-4.4355h2.9528v2.9531h1.4746l.0005,1.4815Z" fill="#fff"/></g></g></svg>
