<svg id="esLBhCgVy6A1" xmlns="http://www.w3.org/2000/svg" xmlns:xlink="http://www.w3.org/1999/xlink" viewBox="0 0 88 48" shape-rendering="geometricPrecision" text-rendering="geometricPrecision">
<style><![CDATA[
#esLBhCgVy6A2_to {animation: esLBhCgVy6A2_to__to 1500ms linear infinite normal forwards}@keyframes esLBhCgVy6A2_to__to { 0% {transform: translate(60.598329px,19.598329px)} 6.666667% {transform: translate(60.598329px,19.598329px);animation-timing-function: cubic-bezier(0.1,0,0.4,1)} 40% {transform: translate(19.598329px,19.598329px)} 100% {transform: translate(19.598329px,19.598329px)}} #esLBhCgVy6A2_ts {animation: esLBhCgVy6A2_ts__ts 1500ms linear infinite normal forwards}@keyframes esLBhCgVy6A2_ts__ts { 0% {transform: scale(0.5,0.5)} 13.333333% {transform: scale(1,1)} 40% {transform: scale(1,1)} 53.333333% {transform: scale(0.5,0.5)} 100% {transform: scale(0.5,0.5)}} #esLBhCgVy6A2 {animation: esLBhCgVy6A2_c_o 1500ms linear infinite normal forwards}@keyframes esLBhCgVy6A2_c_o { 0% {opacity: 0} 13.333333% {opacity: 1} 40% {opacity: 1} 53.333333% {opacity: 0} 100% {opacity: 0}} #esLBhCgVy6A3_to {animation: esLBhCgVy6A3_to__to 1500ms linear infinite normal forwards}@keyframes esLBhCgVy6A3_to__to { 0% {transform: translate(63.264231px,47.439399px)} 6.666667% {transform: translate(63.264231px,47.439399px);animation-timing-function: cubic-bezier(0.1,0,0.4,1)} 40% {transform: translate(28.0758px,46.874696px);animation-timing-function: cubic-bezier(0.42,0,0.58,1)} 86.666667% {transform: translate(63.264231px,47.439399px)} 100% {transform: translate(63.264231px,47.439399px)}} #esLBhCgVy6A3_tr {animation: esLBhCgVy6A3_tr__tr 1500ms linear infinite normal forwards}@keyframes esLBhCgVy6A3_tr__tr { 0% {transform: rotate(0deg)} 6.666667% {transform: rotate(0deg);animation-timing-function: cubic-bezier(0.1,0,0.4,1)} 40% {transform: rotate(-13.178124deg);animation-timing-function: cubic-bezier(0.1,0,0.4,1)} 86.666667% {transform: rotate(0deg)} 100% {transform: rotate(0deg)}} #esLBhCgVy6A3_ts {animation: esLBhCgVy6A3_ts__ts 1500ms linear infinite normal forwards}@keyframes esLBhCgVy6A3_ts__ts { 0% {transform: scale(1.2,1.2)} 6.666667% {transform: scale(1,1)} 40% {transform: scale(1,1)} 53.333333% {transform: scale(1.2,1.2)} 100% {transform: scale(1.2,1.2)}}
]]></style>
<g id="esLBhCgVy6A2_to" transform="translate(60.598329,19.598329)"><g id="esLBhCgVy6A2_ts" transform="scale(0.5,0.5)"><ellipse id="esLBhCgVy6A2" rx="18.598329" ry="18.598329" transform="translate(0,0)" opacity="0" fill="#fff" fill-opacity="0.5" stroke-width="0"/></g></g><g id="esLBhCgVy6A3_to" transform="translate(63.264231,47.439399)"><g id="esLBhCgVy6A3_tr" transform="rotate(0)"><g id="esLBhCgVy6A3_ts" transform="scale(1.2,1.2)"><g transform="translate(-23.994271,-41.439399)"><path d="M19.5,23.5v-15l1-1.5h2.5l2,1.5v8.5l3.5.5L38,23v7.5l-4.5,10h-11.5L11.5,26h-1.5v-2.5l1-.5.5-1.5h4.5v2h3.5Z" fill="#fff"/><path d="M37.2878,22.2402v-1.4708h-1.4708v-1.4823h-2.9531v-1.4708h-2.9526v-1.4823h-4.435v-8.85944h-1.4823L23.994,6h-4.4234v1.47456h-1.4823v14.76544h-1.4708v-1.4707h-5.9057v1.4707h-1.48176v4.4352h1.48176v1.4824h1.4708v1.4707h1.4818v1.4818h1.4707v2.9531h1.4823v1.4702h1.4708v2.9534h1.4823v1.4818h1.4708v1.4708h13.2933v-1.4708h1.4823v-2.9526h1.4708v-4.4352h1.4823v-10.3406h-1.4822Zm0,2.9603v5.9095h-1.4708v4.4234h-1.4823v2.9534h-1.4708v1.4818h-10.3406v-1.4818h-1.4818v-1.4708h-1.4707v-2.9528h-1.4824v-1.4823h-1.4707v-2.9526h-1.4824v-1.4708h-1.4707v-1.4823h-1.4818v-1.4746h-1.4708v-1.4783h1.4708v-1.4823h2.9526v1.4823h1.4823v1.4783h2.9531v-16.24387h1.4708v-1.48231h1.4818v1.48231h1.4708v11.81277h1.4823v-2.9531h2.9531v4.424h1.4817v-2.9531h1.4708v1.4823h1.4818v4.4314h1.4708v-2.9606h1.4823v1.4823h1.4708v1.4778Z" fill="#242424"/></g></g></g></g></svg>
